<svg width="617" height="413" viewBox="0 0 617 413" fill="none" xmlns="http://www.w3.org/2000/svg">
<path opacity="0.5" d="M194.697 58.5399H107.737C107.737 58.5399 95.0167 42.2699 104.317 34.3199C113.317 26.6199 127.067 35.7899 127.067 35.7899C127.067 35.7899 126.457 11.4499 144.797 9.24991C168.377 6.41991 172.067 37.2599 172.067 37.2599C172.067 37.2599 182.957 20.6299 195.797 27.4799C213.197 36.7499 194.697 58.5399 194.697 58.5399Z" fill="#71B0FF"/>
<path opacity="0.5" d="M534.727 283.158H393.797C393.797 283.158 373.187 256.798 388.247 243.908C402.837 231.428 425.117 246.288 425.117 246.288C425.117 246.288 424.127 206.838 453.857 203.278C492.067 198.688 498.057 248.668 498.057 248.668C498.057 248.668 515.697 221.708 536.507 232.808C564.707 247.858 534.727 283.158 534.727 283.158Z" fill="#71B0FF"/>
<path d="M413.43 311.293C469.2 255.523 469.2 165.102 413.43 109.332C357.66 53.5613 267.238 53.5613 211.468 109.332C155.698 165.102 155.698 255.523 211.468 311.293C267.238 367.064 357.66 367.064 413.43 311.293Z" fill="#102465"/>
<path d="M173.477 243.15C173.977 243.2 174.487 243.12 174.967 242.88C176.537 242.05 176.907 240.02 177.577 238.36C178.637 235.72 180.797 233.71 182.457 231.39C189.407 221.73 187.917 206.74 197.397 199.54C205.927 193.05 220.387 195.64 226.027 186.53C227.717 183.82 228.607 180.08 231.647 179.07C234.897 177.97 238.317 181.35 238.457 184.8C238.597 188.24 236.497 191.35 234.167 193.89C230.727 197.66 226.577 200.81 222.017 203.1C220.447 203.88 218.687 204.7 217.987 206.31C216.307 210.12 222.037 213.18 226.117 212.34C230.197 211.5 234.427 209.05 238.267 210.66C240.197 211.47 241.747 213.24 243.827 213.47C247.987 213.93 249.867 208.6 251.257 204.63C253.357 198.61 257.457 193.53 261.487 188.59C266.487 186.35 271.187 202.89 269.377 207.75C265.327 218.67 247.757 222.86 251.157 235.33C251.657 237.15 249.887 239.23 250.987 240.75C251.887 241.99 253.567 242.31 254.887 243.08C258.547 245.16 259.167 250.21 262.047 253.28C264.927 256.35 269.637 257.03 272.667 259.91C274.417 261.56 275.457 263.81 276.477 265.98C279.277 272.03 282.257 278.12 286.807 283C291.337 287.88 297.747 291.45 304.387 291.07C306.497 290.95 308.667 290.45 310.657 291.16C314.817 292.62 317.717 298.91 321.727 297.08C323.267 296.38 324.027 294.67 324.657 293.1C327.457 286.21 330.247 279.31 333.057 272.4C335.197 267.09 337.387 261.6 337.237 255.87C337.047 248.36 333.047 239.97 337.487 233.91C339.977 230.49 344.647 228.92 346.517 225.13C347.637 222.84 347.587 220.04 349.037 217.94C351.907 213.81 358.157 215.05 363.137 214.19C368.727 213.25 373.367 209.1 376.277 204.22C379.187 199.36 380.637 193.76 382.047 188.26C382.497 186.53 382.937 184.74 382.657 182.98C381.707 177.22 373.827 174.95 372.227 169.33C371.117 165.48 373.087 160.45 370.027 157.85C368.647 156.68 366.687 156.54 364.877 156.31C356.717 155.32 348.917 151.54 343.087 145.75C342.007 144.67 340.827 143.45 339.317 143.33C337.517 143.19 336.047 144.62 334.497 145.54C330.087 148.15 323.807 147.05 320.277 150.75C319.077 152.02 318.387 153.69 317.257 155.03C312.427 160.77 302.137 158.15 296.867 163.48C294.907 165.47 293.967 168.27 292.177 170.41C290.367 172.55 286.817 173.8 284.867 171.79C283.877 170.79 283.617 169.23 282.697 168.16C279.207 164.15 270.967 170.15 267.767 165.92C265.607 163.06 268.517 159.27 270.797 156.52C273.077 153.77 274.077 148.43 270.597 147.61C265.427 149.75 259.367 149.65 254.287 147.3C253.777 142.39 258.147 137.53 263.077 137.54C267.977 137.54 271.867 141.42 275.507 144.69C279.157 147.98 284.167 151.04 288.677 149.14C291.027 148.14 292.657 146.01 294.677 144.46C296.697 142.91 299.777 142.03 301.677 143.74C302.827 144.75 303.157 146.38 304.017 147.64C305.777 150.3 309.937 150.9 312.387 148.88C314.847 146.87 315.027 142.66 312.767 140.43C311.737 139.41 310.307 138.76 309.507 137.55C308.307 135.68 309.067 133.06 310.647 131.49C312.217 129.93 314.407 129.17 316.507 128.45C320.037 127.27 323.967 126.08 327.357 127.61C329.177 128.43 330.587 129.93 332.117 131.23C336.177 134.72 341.517 136.97 346.867 136.54C352.217 136.11 357.427 132.67 359.147 127.59C360.887 122.52 358.447 116.14 353.447 114.18C351.987 113.61 350.367 113.41 349.027 112.6C346.587 111.13 345.647 108.13 344.047 105.77C339.987 99.8698 332.057 98.4398 324.967 97.4998C321.707 97.0798 318.377 96.6498 315.137 97.2998C311.587 98.0298 308.397 100.02 304.927 101.08C301.437 102.15 297.127 102.01 294.817 99.2098C292.697 96.6398 292.437 92.1898 289.237 91.2798C287.977 90.9098 286.637 91.2998 285.327 91.3598C279.687 91.6798 275.437 86.6298 271.737 82.3598C268.917 79.1198 265.737 77.3298 262.317 76.5898C211.077 95.7198 176.127 142.3 170.447 195.05V195.07C170.427 195.74 175.027 197.04 175.457 204.86C175.857 212.07 170.047 211.53 169.887 218.74C169.887 218.76 169.887 218.79 169.887 218.81C170.387 226.89 171.557 235.02 173.477 243.15Z" fill="#53BBE8"/>
<path d="M425.027 286.209C426.727 287.939 429.047 288.969 431.467 289.229C450.577 260.429 459.237 224.759 453.577 188.539C453.477 188.549 453.397 188.569 453.307 188.589C451.257 189.049 448.357 193.469 446.547 194.839C443.937 196.799 441.047 198.409 437.997 199.559C437.127 199.889 436.177 200.209 435.567 200.929C434.857 201.739 434.717 202.889 434.607 203.949C434.107 208.719 433.617 213.479 433.117 218.229C433.007 219.329 432.887 220.419 432.427 221.419C431.777 222.809 430.527 223.829 429.327 224.819C422.247 230.729 415.647 239.679 418.497 248.459C418.627 248.879 418.797 249.309 419.157 249.589C420.077 250.359 421.397 249.569 422.517 249.179C425.807 247.989 429.767 251.309 429.197 254.749C428.767 257.359 426.357 259.929 427.597 262.249C428.107 263.199 429.107 263.759 429.887 264.489C432.817 267.219 432.427 272.039 430.727 275.659C429.037 279.309 426.317 282.419 425.027 286.209Z" fill="#53BBE8"/>
<path d="M262.697 280.881C265.987 285.351 271.527 287.441 276.687 289.481C278.227 290.091 280.077 291.291 279.657 292.891C279.547 293.311 279.287 293.671 279.017 294.001C277.637 295.751 275.927 297.241 274.007 298.381C273.517 298.671 272.967 298.951 272.397 298.911C271.477 298.841 270.837 298.011 270.077 297.501C268.297 296.311 265.927 296.921 263.887 297.571C261.617 298.291 259.357 299.001 257.087 299.721C256.277 299.981 255.397 300.231 254.597 299.941C253.977 299.711 253.517 299.181 253.107 298.661C249.037 293.551 246.197 287.561 249.937 281.311C252.887 276.341 259.377 276.381 262.697 280.881Z" fill="#53BBE8"/>
<path d="M292.567 76.2403C292.977 78.1003 293.557 80.0203 294.847 81.4303C297.357 84.1703 301.647 84.1103 305.327 83.5703C309.007 83.0103 312.987 82.2003 316.257 83.9903C317.087 84.4403 317.857 85.0803 318.797 85.2503C319.557 85.4003 320.337 85.2503 321.087 85.0403C324.327 84.1803 332.177 81.1603 331.567 77.0103C331.217 74.7003 325.067 69.8203 323.127 68.2203C322.977 68.0903 322.817 67.9603 322.637 67.8503C314.247 67.2403 305.727 67.3903 297.157 68.3203C297.137 68.3203 297.137 68.3203 297.137 68.3203C294.787 69.3203 292.727 70.8003 292.337 73.2103C292.187 74.2103 292.367 75.2303 292.567 76.2403Z" fill="#53BBE8"/>
<path opacity="0.3" d="M427.108 22.7708C431.568 20.9117 433.677 15.7888 431.818 11.3284C429.959 6.86799 424.836 4.75919 420.376 6.61825C415.915 8.47731 413.806 13.6002 415.665 18.0606C417.525 22.521 422.647 24.6298 427.108 22.7708Z" stroke="#8F93F9" stroke-miterlimit="10"/>
<path d="M525.089 54.2918C529.006 49.4611 528.265 42.37 523.434 38.4535C518.604 34.5369 511.513 35.278 507.596 40.1087C503.679 44.9394 504.42 52.0305 509.251 55.947C514.082 59.8636 521.173 59.1225 525.089 54.2918Z" stroke="#8F93F9" stroke-miterlimit="10"/>
<path d="M19.4767 312.111C24.9222 312.111 29.3367 307.696 29.3367 302.251C29.3367 296.805 24.9222 292.391 19.4767 292.391C14.0312 292.391 9.6167 296.805 9.6167 302.251C9.6167 307.696 14.0312 312.111 19.4767 312.111Z" fill="#8F93F9"/>
<path opacity="0.3" d="M545.057 26.2488C545.057 29.5788 542.357 32.2788 539.027 32.2788C535.697 32.2788 532.997 29.5788 532.997 26.2488C532.997 22.9188 535.697 20.2188 539.027 20.2188C542.357 20.2188 545.057 22.9088 545.057 26.2488Z" fill="#8F93F9"/>
<path opacity="0.3" d="M441.027 2.91006C441.027 4.52006 439.727 5.82006 438.117 5.82006C436.507 5.82006 435.207 4.52006 435.207 2.91006C435.207 1.30006 436.507 5.68737e-05 438.117 5.68737e-05C439.727 -0.00994313 441.027 1.30006 441.027 2.91006Z" fill="#8F93F9"/>
<path d="M94.3665 87.8388C94.3665 93.9788 89.3865 98.9587 83.2465 98.9587C77.1065 98.9587 72.1265 93.9788 72.1265 87.8388C72.1265 81.6988 77.1065 76.7188 83.2465 76.7188C89.3865 76.7188 94.3665 81.6988 94.3665 87.8388Z" stroke="#8F93F9" stroke-miterlimit="10"/>
<path d="M569.167 261.04C569.167 264.69 566.207 267.65 562.557 267.65C558.907 267.65 555.947 264.69 555.947 261.04C555.947 257.39 558.907 254.43 562.557 254.43C566.207 254.43 569.167 257.39 569.167 261.04Z" fill="#8F93F9"/>
<path d="M105.567 206.82C105.567 208.89 103.887 210.57 101.817 210.57C99.7469 210.57 98.0669 208.89 98.0669 206.82C98.0669 204.75 99.7469 203.07 101.817 203.07C103.887 203.07 105.567 204.75 105.567 206.82Z" fill="#8F93F9"/>
<path d="M600.947 346.289C600.947 348.359 599.267 350.039 597.197 350.039C595.127 350.039 593.447 348.359 593.447 346.289C593.447 344.219 595.127 342.539 597.197 342.539C599.267 342.539 600.947 344.219 600.947 346.289Z" fill="#8F93F9"/>
<path d="M223.017 5.30859C223.017 7.37859 221.337 9.05859 219.267 9.05859C217.197 9.05859 215.517 7.37859 215.517 5.30859C215.517 3.23859 217.197 1.55859 219.267 1.55859C221.337 1.55859 223.017 3.23859 223.017 5.30859Z" fill="#8F93F9"/>
<path opacity="0.3" d="M60.4766 339.941C60.4766 344.081 57.1166 347.441 52.9766 347.441C48.8366 347.441 45.4766 344.081 45.4766 339.941C45.4766 335.801 48.8366 332.441 52.9766 332.441C57.1266 332.441 60.4766 335.801 60.4766 339.941Z" fill="#8F93F9"/>
<path opacity="0.3" d="M510.667 221.818C510.667 225.368 507.797 228.238 504.247 228.238C500.697 228.238 497.827 225.368 497.827 221.818C497.827 218.268 500.697 215.398 504.247 215.398C507.787 215.398 510.667 218.278 510.667 221.818Z" fill="#8F93F9"/>
<path opacity="0.3" d="M349.946 26.5902C351.239 26.5902 352.286 25.5425 352.286 24.2502C352.286 22.9578 351.239 21.9102 349.946 21.9102C348.654 21.9102 347.606 22.9578 347.606 24.2502C347.606 25.5425 348.654 26.5902 349.946 26.5902Z" fill="#8F93F9"/>
<path opacity="0.2" d="M204.437 86.1001C206.491 86.1001 208.157 84.4346 208.157 82.3801C208.157 80.3256 206.491 78.6602 204.437 78.6602C202.382 78.6602 200.717 80.3256 200.717 82.3801C200.717 84.4346 202.382 86.1001 204.437 86.1001Z" fill="#8F93F9"/>
<path d="M473.927 71.2889H441.947C439.827 71.2889 438.117 69.5789 438.117 67.4589C438.117 65.3389 439.827 63.6289 441.947 63.6289H473.927C476.047 63.6289 477.757 65.3389 477.757 67.4589C477.757 69.5689 476.037 71.2889 473.927 71.2889Z" stroke="#0F0E13" stroke-width="0.5" stroke-miterlimit="10" stroke-linejoin="round"/>
<path d="M325.027 36.1092H272.427C270.307 36.1092 268.597 34.3992 268.597 32.2792C268.597 30.1592 270.307 28.4492 272.427 28.4492H325.027C327.147 28.4492 328.857 30.1592 328.857 32.2792C328.857 34.3892 327.137 36.1092 325.027 36.1092Z" fill="white"/>
<path d="M338.817 36.1092H336.007C333.887 36.1092 332.177 34.3992 332.177 32.2792C332.177 30.1592 333.887 28.4492 336.007 28.4492H338.817C340.937 28.4492 342.647 30.1592 342.647 32.2792C342.647 34.3892 340.927 36.1092 338.817 36.1092Z" fill="white" stroke="#0F0E13" stroke-width="0.5" stroke-miterlimit="10" stroke-linejoin="round"/>
<path d="M301.947 221.332H27.0967V229.992H301.947V221.332Z" fill="white"/>
<path d="M36.6367 229.992V406.322" stroke="white" stroke-miterlimit="10" stroke-linejoin="round"/>
<path d="M292.407 229.992V406.322" stroke="white" stroke-miterlimit="10" stroke-linejoin="round"/>
<path d="M155.486 221.339L171.626 179.969C172.436 177.879 174.446 176.509 176.686 176.509L244.566 174.449C246.726 175.079 248.706 178.319 248.046 179.989L231.916 221.339H155.486Z" fill="#4D89F5"/>
<path d="M149.196 221.34L166.116 177.95C166.966 175.76 169.076 174.32 171.426 174.32H243.776C245.666 174.32 246.956 176.22 246.276 177.98L229.366 221.34H149.196Z" fill="#181E4C"/>
<path d="M153.326 219.12H226.966L242.716 178.73C243.076 177.81 242.396 176.82 241.406 176.82H173.416C171.256 176.82 169.326 178.14 168.536 180.16L153.326 219.12Z" fill="white"/>
<path d="M140.395 221.332H231.175V218.362H140.395V221.332Z" fill="#4D89F5"/>
<path d="M104.267 154.623C107.107 144.433 109.787 134.633 109.787 134.633C109.787 134.633 124.247 142.463 127.017 144.013L126.057 154.473C126.677 159.093 106.287 159.013 104.267 154.623Z" fill="#F39C94"/>
<path d="M145.576 118.281C146.086 123.241 143.476 137.221 139.716 144.871C137.986 148.401 134.046 150.261 130.216 149.411C126.466 148.581 121.246 146.371 116.976 140.611C114.786 137.661 112.026 136.991 111.126 133.431C109.666 127.651 107.606 116.981 110.256 110.561C113.836 101.851 143.686 99.9112 145.576 118.281Z" fill="#F39C94"/>
<path d="M152.586 103.741C152.056 103.601 151.526 103.441 150.996 103.281C151.996 101.531 152.776 99.3011 150.806 98.5311C148.616 97.6811 143.516 98.5511 140.296 99.2411C140.976 97.7211 141.186 96.1311 139.596 95.5111C137.616 94.7411 133.276 95.3711 130.076 96.0111C124.856 95.1111 120.016 96.0011 115.826 101.011C103.046 98.4111 98.4164 111.601 100.076 122.351C101.706 132.891 105.756 142.331 107.426 143.191C109.586 144.441 118.486 144.591 121.846 144.021C123.056 141.751 125.066 138.241 126.526 135.081C124.486 130.501 123.556 125.151 127.546 123.591C132.916 121.501 134.336 128.511 134.336 128.511C134.336 128.511 135.246 128.591 135.956 128.621C139.016 126.021 141.276 123.781 140.076 117.851C145.216 119.591 153.136 117.041 154.796 109.431C155.426 106.121 154.256 104.191 152.586 103.741Z" fill="#0F0E13"/>
<path d="M69.3165 190.801C69.3165 190.801 65.8365 207.911 64.8865 218.111C64.6065 221.101 66.7665 227.181 73.7865 227.571C83.0365 228.071 98.0665 225.671 98.0665 225.671L95.2565 196.361" fill="#F39C94"/>
<path d="M79.4666 162.781C73.6366 167.101 69.2166 185.261 66.7666 199.201C66.7666 199.201 73.2766 203.371 89.4866 201.871" fill="#5EBDC4"/>
<path d="M89.4963 201.87C84.4963 202.33 80.4263 202.25 77.1763 201.92L81.4663 182.48H84.5263L89.4963 201.87Z" fill="#0F0E13"/>
<path d="M131.596 357.742L127.667 378.502C130.977 386.442 141.807 388.302 150.697 383.312L154.016 364.552L131.596 357.742Z" fill="#D97969"/>
<path d="M127.656 378.512C132.326 379.192 137.626 380.432 143.066 382.962L151.106 380.892L151.876 386.202C171.056 385.482 167.096 406.322 167.096 406.322H134.266L115.526 398.182C115.536 398.182 120.246 380.912 127.656 378.512Z" fill="#4D89F5"/>
<path d="M167.777 288.993C167.777 288.993 157.247 366.213 155.237 376.733C146.907 377.973 130.727 375.493 125.847 374.053C125.827 364.113 125.687 353.243 125.627 346.933C125.487 332.693 125.137 312.053 128.567 298.593C105.517 297.703 103.007 296.463 90.9965 289.973C76.7965 282.293 84.7266 252.633 84.7266 252.633C85.2566 247.433 87.1365 245.543 87.1365 245.543L114.617 254.523L139.587 260.213C148.847 262.273 141.937 264.763 151.797 266.993C162.857 269.503 170.207 277.913 167.777 288.993Z" fill="#181E4C"/>
<path d="M198.417 362.57L203.097 387.29C212.527 388.98 221.017 388.74 227.547 384.46L224.747 358.84L198.417 362.57Z" fill="#D97969"/>
<path d="M203.097 387.281L219.927 385.331L227.547 380.121C227.547 380.121 231.077 384.011 233.317 386.691L237.087 387.731C259.807 385.481 255.087 406.321 255.087 406.321H199.997C197.757 392.421 203.097 387.281 203.097 387.281Z" fill="#4D89F5"/>
<path d="M228.176 373.302C222.366 376.332 210.456 378.402 198.456 377.032C194.246 355.682 188.816 340.802 187.066 332.632C183.986 318.202 182.836 312.322 182.086 300.432C155.166 298.092 125.146 292.862 120.376 292.612C103.466 291.732 109.256 256.322 109.256 256.322C109.786 251.122 110.796 248.492 110.796 248.492C110.796 248.492 140.076 250.482 153.926 253.262C174.816 257.452 190.916 263.802 201.566 267.382C210.366 270.332 217.076 275.762 217.906 283.702C217.916 283.702 225.046 336.912 228.176 373.302Z" fill="#181E4C"/>
<path d="M151.607 252.823L145.277 251.983C145.277 251.983 132.647 263.333 114.607 265.413C114.577 265.413 114.557 265.423 114.527 265.423C104.307 266.513 92.9267 265.673 81.7067 260.793C83.4067 248.493 85.1567 236.953 86.1067 229.993C83.2467 215.693 77.0467 165.393 79.4667 162.773C79.4867 162.763 85.0267 159.843 104.267 154.623C106.787 155.243 114.327 156.973 126.067 154.473C142.377 157.333 149.027 162.483 149.077 162.513C147.207 174.593 146.717 206.823 145.667 231.393C146.467 235.393 149.207 246.903 151.607 252.823Z" fill="#5EBDC4"/>
<path d="M130.146 181.672L133.276 209.222C133.276 209.222 139.016 210.892 148.976 207.652" fill="#0F0E13"/>
<path d="M219.906 215.411C219.476 215.071 217.136 214.501 214.556 213.371C211.206 208.901 208.926 205.251 207.576 205.511C206.626 205.691 204.866 206.511 203.556 207.171C203.016 207.011 202.526 206.951 202.106 207.021C198.706 207.561 196.826 208.141 193.296 209.021C187.976 209.351 179.006 209.861 167.936 210.481C165.386 200.181 160.696 184.941 160.696 184.941L135.796 189.281C135.796 189.281 143.646 224.991 151.736 228.451C153.996 229.411 171.066 228.581 182.206 224.341C192.066 220.581 192.716 219.871 194.776 218.531C195.586 219.101 199.686 220.111 202.006 219.861C206.736 219.361 210.086 217.061 210.086 217.061C210.086 217.061 210.856 217.241 211.936 217.461C213.726 218.441 215.096 218.511 215.976 218.201C216.726 218.311 217.396 218.381 217.876 218.381C219.546 218.371 221.416 216.601 219.906 215.411Z" fill="#F39C94"/>
<path d="M204.546 207.672C204.546 207.672 205.476 207.742 206.266 208.222C207.056 208.702 212.006 212.462 213.756 213.222" stroke="#102465" stroke-width="0.4" stroke-miterlimit="10" stroke-linecap="round" stroke-linejoin="round"/>
<path d="M167.966 211.293C167.966 211.293 169.496 216.083 169.786 218.183" stroke="#102465" stroke-width="0.4" stroke-miterlimit="10" stroke-linecap="round" stroke-linejoin="round"/>
<path d="M132.827 155.902C132.827 155.902 147.707 158.942 152.987 164.722C158.267 170.502 164.517 194.412 164.517 194.412C164.517 194.412 147.187 202.762 135.797 202.762C132.537 191.372 127.707 176.232 127.707 176.232" fill="#5EBDC4"/>
<path d="M77.5464 298.875V291.585H157.447V298.875H77.5464Z" fill="white" stroke="white"/>
<path d="M85.0371 297.398V408.288" stroke="white" stroke-miterlimit="10" stroke-linejoin="round"/>
<path d="M149.957 297.398V408.288" stroke="white" stroke-miterlimit="10" stroke-linejoin="round"/>
<path d="M85.0371 351.461H149.957" stroke="white" stroke-miterlimit="10" stroke-linejoin="round"/>
<path d="M253.097 192.91L253.327 196.83C251.387 196.6 247.927 196.72 245.797 199.89C242.957 204.13 245.467 214.81 254.507 217.13L254.747 221.34H276.597L278.247 192.91H253.097ZM247.267 205.34C247.267 205.34 246.707 201.09 250.047 199.76C251.697 199.11 253.517 200.27 253.617 202.05L254.307 213.93C254.337 214.4 253.857 214.74 253.417 214.54C251.137 213.51 247.817 211.06 247.267 205.34Z" fill="#FFC15B"/>
<path d="M253.657 202.719L253.917 207.079H277.417L277.667 202.719H253.657Z" fill="#102465"/>
<path d="M268.627 126.883H185.897C182.087 126.883 179.007 129.963 179.007 133.773V145.993C179.007 149.803 182.087 152.883 185.897 152.883H195.317L192.077 166.233L204.187 152.883H268.637C272.447 152.883 275.527 149.803 275.527 145.993V133.773C275.517 129.963 272.437 126.883 268.627 126.883Z" fill="white" stroke="#102465" stroke-width="0.5" stroke-miterlimit="10" stroke-linecap="round" stroke-linejoin="round"/>
<path d="M200.017 140.365C200.017 139.735 199.507 139.215 198.867 139.215H198.817L198.857 139.175C199.307 138.725 199.307 137.995 198.857 137.555C198.407 137.105 197.677 137.105 197.237 137.555L197.197 137.595V137.545C197.197 136.915 196.687 136.395 196.047 136.395C195.407 136.395 194.897 136.905 194.897 137.545V137.595L194.857 137.555C194.407 137.105 193.677 137.105 193.237 137.555C192.787 138.005 192.787 138.735 193.237 139.175L193.277 139.215H193.227C192.597 139.215 192.077 139.725 192.077 140.365C192.077 141.005 192.587 141.515 193.227 141.515H193.277L193.237 141.555C192.787 142.005 192.787 142.735 193.237 143.175C193.687 143.615 194.417 143.625 194.857 143.175L194.897 143.135V143.185C194.897 143.815 195.407 144.335 196.047 144.335C196.687 144.335 197.197 143.825 197.197 143.185V143.135L197.237 143.175C197.687 143.625 198.417 143.625 198.857 143.175C199.297 142.725 199.307 141.995 198.857 141.555L198.817 141.515H198.867C199.507 141.515 200.017 140.995 200.017 140.365Z" fill="#102465"/>
<path d="M212.387 140.365C212.387 139.735 211.877 139.215 211.237 139.215H211.187L211.227 139.175C211.677 138.725 211.677 137.995 211.227 137.555C210.777 137.105 210.047 137.105 209.607 137.555L209.567 137.595V137.545C209.567 136.915 209.057 136.395 208.417 136.395C207.787 136.395 207.267 136.905 207.267 137.545V137.595L207.227 137.555C206.777 137.105 206.047 137.105 205.607 137.555C205.157 138.005 205.157 138.735 205.607 139.175L205.647 139.215H205.597C204.967 139.215 204.447 139.725 204.447 140.365C204.447 141.005 204.957 141.515 205.597 141.515H205.647L205.607 141.555C205.157 142.005 205.157 142.735 205.607 143.175C206.057 143.625 206.787 143.625 207.227 143.175L207.267 143.135V143.185C207.267 143.815 207.777 144.335 208.417 144.335C209.047 144.335 209.567 143.825 209.567 143.185V143.135L209.607 143.175C210.057 143.625 210.787 143.625 211.227 143.175C211.677 142.725 211.677 141.995 211.227 141.555L211.187 141.515H211.237C211.867 141.515 212.387 140.995 212.387 140.365Z" fill="#102465"/>
<path d="M224.747 140.365C224.747 139.735 224.237 139.215 223.597 139.215H223.547L223.587 139.175C224.037 138.725 224.037 137.995 223.587 137.555C223.137 137.105 222.407 137.105 221.967 137.555L221.927 137.595V137.545C221.927 136.915 221.417 136.395 220.777 136.395C220.147 136.395 219.627 136.905 219.627 137.545V137.595L219.587 137.555C219.137 137.105 218.407 137.105 217.967 137.555C217.517 138.005 217.517 138.735 217.967 139.175L218.007 139.215H217.957C217.327 139.215 216.807 139.725 216.807 140.365C216.807 141.005 217.317 141.515 217.957 141.515H218.007L217.967 141.555C217.517 142.005 217.517 142.735 217.967 143.175C218.417 143.625 219.147 143.625 219.587 143.175L219.627 143.135V143.185C219.627 143.815 220.137 144.335 220.777 144.335C221.407 144.335 221.927 143.825 221.927 143.185V143.135L221.967 143.175C222.417 143.625 223.147 143.625 223.587 143.175C224.037 142.725 224.037 141.995 223.587 141.555L223.547 141.515H223.597C224.237 141.515 224.747 140.995 224.747 140.365Z" fill="#102465"/>
<path d="M237.107 140.365C237.107 139.735 236.597 139.215 235.957 139.215H235.907L235.947 139.175C236.397 138.725 236.397 137.995 235.947 137.555C235.497 137.105 234.767 137.105 234.327 137.555L234.286 137.595V137.545C234.286 136.915 233.777 136.395 233.137 136.395C232.507 136.395 231.987 136.905 231.987 137.545V137.595L231.947 137.555C231.497 137.105 230.767 137.105 230.327 137.555C229.877 138.005 229.877 138.735 230.327 139.175L230.367 139.215H230.316C229.686 139.215 229.167 139.725 229.167 140.365C229.167 141.005 229.676 141.515 230.316 141.515H230.367L230.327 141.555C229.877 142.005 229.877 142.735 230.327 143.175C230.777 143.625 231.507 143.625 231.947 143.175L231.987 143.135V143.185C231.987 143.815 232.497 144.335 233.137 144.335C233.767 144.335 234.286 143.825 234.286 143.185V143.135L234.327 143.175C234.777 143.625 235.507 143.625 235.947 143.175C236.387 142.725 236.397 141.995 235.947 141.555L235.907 141.515H235.957C236.597 141.515 237.107 140.995 237.107 140.365Z" fill="#102465"/>
<path d="M249.477 140.365C249.477 139.735 248.967 139.215 248.327 139.215H248.277L248.317 139.175C248.767 138.725 248.767 137.995 248.317 137.555C247.867 137.105 247.137 137.105 246.697 137.555L246.657 137.595V137.545C246.657 136.915 246.147 136.395 245.507 136.395C244.877 136.395 244.357 136.905 244.357 137.545V137.595L244.317 137.555C243.867 137.105 243.137 137.105 242.697 137.555C242.247 138.005 242.247 138.735 242.697 139.175L242.737 139.215H242.687C242.057 139.215 241.537 139.725 241.537 140.365C241.537 141.005 242.047 141.515 242.687 141.515H242.737L242.697 141.555C242.247 142.005 242.247 142.735 242.697 143.175C243.147 143.625 243.877 143.625 244.317 143.175L244.357 143.135V143.185C244.357 143.815 244.867 144.335 245.507 144.335C246.137 144.335 246.657 143.825 246.657 143.185V143.135L246.697 143.175C247.147 143.625 247.877 143.625 248.317 143.175C248.767 142.725 248.767 141.995 248.317 141.555L248.277 141.515H248.327C248.957 141.515 249.477 140.995 249.477 140.365Z" fill="#102465"/>
<path d="M261.836 140.365C261.836 139.735 261.326 139.215 260.686 139.215H260.636L260.676 139.175C261.126 138.725 261.126 137.995 260.676 137.555C260.226 137.105 259.496 137.105 259.056 137.555L259.016 137.595V137.545C259.016 136.915 258.506 136.395 257.866 136.395C257.236 136.395 256.716 136.905 256.716 137.545V137.595L256.676 137.555C256.226 137.105 255.496 137.105 255.056 137.555C254.606 138.005 254.606 138.735 255.056 139.175L255.096 139.215H255.046C254.416 139.215 253.896 139.725 253.896 140.365C253.896 141.005 254.406 141.515 255.046 141.515H255.096L255.056 141.555C254.606 142.005 254.606 142.735 255.056 143.175C255.506 143.625 256.236 143.625 256.676 143.175L256.716 143.135V143.185C256.716 143.815 257.226 144.335 257.866 144.335C258.496 144.335 259.016 143.825 259.016 143.185V143.135L259.056 143.175C259.506 143.625 260.236 143.625 260.676 143.175C261.126 142.725 261.126 141.995 260.676 141.555L260.636 141.515H260.686C261.326 141.515 261.836 140.995 261.836 140.365Z" fill="#102465"/>
<path d="M485.306 104.53C464.726 103.5 423.376 87.8603 404.236 68.3203C385.106 87.8703 343.746 103.5 323.166 104.53C323.166 104.53 318.226 220.16 404.236 237.03C490.246 220.16 485.306 104.53 485.306 104.53Z" fill="#53BBE8"/>
<path d="M404.246 226.309C373.916 219.619 352.856 197.949 341.656 161.879C335.736 142.799 334.146 124.299 333.756 113.799C355.396 109.889 385.256 97.4989 404.246 82.3789C423.236 97.4989 453.106 109.889 474.746 113.799C474.356 124.289 472.766 142.799 466.846 161.879C455.636 197.949 434.576 219.609 404.246 226.309Z" fill="#102465"/>
<path d="M355.506 406.316H275.086C270.496 406.316 266.766 402.596 266.766 397.996V339.136C266.766 334.546 270.486 330.816 275.086 330.816H355.506C360.096 330.816 363.826 334.536 363.826 339.136V397.996C363.816 402.586 360.096 406.316 355.506 406.316Z" fill="#E9A134"/>
<path d="M352.966 330.827H342.776V315.197C342.776 300.047 330.446 287.717 315.296 287.717C300.146 287.717 287.816 300.047 287.816 315.197V330.827H277.626V315.197C277.626 294.427 294.526 277.527 315.296 277.527C336.066 277.527 352.966 294.427 352.966 315.197V330.827Z" fill="white"/>
<path d="M330.766 357.919C330.766 349.379 323.846 342.449 315.296 342.449C306.756 342.449 299.826 349.379 299.826 357.919C299.826 364.439 303.866 369.989 309.576 372.269V392.959H321.016V372.269C326.716 369.989 330.766 364.439 330.766 357.919Z" fill="white"/>
<path d="M369.196 368.57H396.326C400.706 368.57 404.246 365.02 404.246 360.65V243.27" stroke="#0E1530" stroke-width="0.5" stroke-miterlimit="10" stroke-linecap="round" stroke-linejoin="round" stroke-dasharray="4 4"/>
<path d="M371.366 368.48C371.366 369.84 370.266 370.94 368.906 370.94C367.546 370.94 366.446 369.84 366.446 368.48C366.446 367.12 367.546 366.02 368.906 366.02C370.266 366.02 371.366 367.12 371.366 368.48Z" fill="#0F0E13"/>
<path d="M406.706 243.269C406.706 244.629 405.606 245.729 404.246 245.729C402.886 245.729 401.786 244.629 401.786 243.269C401.786 241.909 402.886 240.809 404.246 240.809C405.606 240.809 406.706 241.909 406.706 243.269Z" fill="#0F0E13"/>
<path d="M464.076 364.788C464.076 364.788 466.696 334.588 484.396 334.838C502.096 335.088 491.756 357.278 491.756 357.278C491.756 357.278 493.286 330.948 477.546 330.598C464.486 330.308 460.936 344.038 460.936 344.038C460.936 344.038 462.686 310.718 481.036 302.238C481.036 302.238 453.456 303.738 453.266 347.308C453.266 347.308 450.836 314.678 435.876 309.718C435.876 309.718 446.626 322.438 447.186 357.968C447.186 357.968 444.066 324.678 432.596 320.188C421.126 315.698 416.446 339.188 416.446 339.188C416.446 339.188 412.796 318.538 422.866 319.058C437.546 319.808 440.536 364.778 440.536 364.778H464.076V364.788Z" fill="#5EBDC4"/>
<path d="M445.816 406.317H458.286C464.036 406.317 468.696 401.657 468.696 395.907V364.797H435.406V395.907C435.406 401.657 440.066 406.317 445.816 406.317Z" fill="#492F89"/>
<path d="M447.067 364.789C447.067 364.789 445.087 356.559 437.747 358.919C427.467 354.389 429.447 384.679 429.447 384.679C429.447 384.679 438.897 374.799 441.827 364.789H447.067Z" fill="#0F0E13"/>
<path d="M437.816 368.566H466.276" stroke="#0F0E13" stroke-width="0.5" stroke-miterlimit="10" stroke-linejoin="round"/>
<path d="M516.906 124.807C516.906 124.807 545.576 120.318 571.366 113.938L566.906 137.637H516.906V124.807Z" fill="#C77800"/>
<path d="M575.706 125.299L570.916 165.839H508.896L502.346 118.879H526.126L528.326 125.299H575.706Z" fill="#E9A134"/>
<path d="M504.946 297.41H465.786C462.626 297.41 460.066 294.85 460.066 291.69V274.63C460.066 271.47 462.626 268.91 465.786 268.91H504.946C508.106 268.91 510.666 271.47 510.666 274.63V291.69C510.666 294.85 508.106 297.41 504.946 297.41Z" fill="#4D89F5"/>
<path d="M478.677 293.158C478.297 293.158 477.907 293.008 477.617 292.718L469.127 284.228C468.847 283.948 468.687 283.568 468.687 283.168C468.687 282.768 468.847 282.388 469.127 282.108L477.617 273.618C478.207 273.028 479.157 273.028 479.737 273.618C480.327 274.208 480.327 275.158 479.737 275.738L472.307 283.168L479.737 290.598C480.327 291.188 480.327 292.138 479.737 292.718C479.437 293.008 479.057 293.158 478.677 293.158Z" fill="white"/>
<path d="M492.057 293.158C491.677 293.158 491.287 293.008 490.997 292.718C490.407 292.128 490.407 291.178 490.997 290.598L498.427 283.168L490.997 275.738C490.407 275.148 490.407 274.198 490.997 273.618C491.587 273.028 492.537 273.028 493.117 273.618L501.607 282.108C501.887 282.388 502.047 282.768 502.047 283.168C502.047 283.568 501.887 283.948 501.607 284.228L493.117 292.718C492.827 293.008 492.437 293.158 492.057 293.158Z" fill="white"/>
<path d="M44.4063 139.14C54.3006 131.825 56.3914 117.873 49.0762 107.979C41.7609 98.0847 27.8097 95.994 17.9153 103.309C8.02097 110.624 5.93019 124.576 13.2455 134.47C20.5607 144.364 34.5119 146.455 44.4063 139.14Z" fill="#5EBDC4"/>
<path d="M31.1664 132.878C30.7064 132.878 30.2464 132.728 29.8664 132.418L15.5664 120.888C14.6764 120.168 14.5364 118.858 15.2564 117.968C15.9764 117.078 17.2764 116.938 18.1764 117.658L30.9664 127.978L51.2264 106.338C52.0164 105.498 53.3264 105.458 54.1564 106.238C54.9964 107.018 55.0364 108.338 54.2564 109.168L32.6864 132.218C32.2764 132.658 31.7164 132.878 31.1664 132.878Z" fill="white"/>
<path d="M549.624 207.768C555.208 202.183 555.208 193.129 549.624 187.545C544.039 181.96 534.985 181.96 529.401 187.545C523.816 193.129 523.816 202.183 529.401 207.768C534.985 213.352 544.039 213.352 549.624 207.768Z" fill="#5EBDC4"/>
<path d="M539.516 205.139C539.216 205.139 538.926 205.039 538.676 204.839L529.496 197.439C528.926 196.979 528.836 196.139 529.296 195.569C529.756 194.999 530.596 194.909 531.166 195.369L539.376 201.989L552.376 188.089C552.876 187.549 553.726 187.519 554.256 188.029C554.796 188.529 554.816 189.379 554.316 189.909L540.466 204.709C540.226 204.999 539.866 205.139 539.516 205.139Z" fill="white"/>
<path d="M557.296 345.447L558.886 337.217H550.886L553.916 327.707H545.046L542.016 337.217H534.356L537.386 327.707H528.516L525.486 337.217H516.646L514.986 345.447H522.856L519.926 354.637H510.956L509.296 362.867H517.296L514.266 372.377H523.136L526.166 362.867H533.826L530.796 372.377H539.666L542.696 362.867H551.596L553.186 354.637H545.316L548.246 345.447H557.296ZM536.476 354.627H528.816L531.746 345.437H539.406L536.476 354.627Z" fill="white"/>
<path d="M68.1262 33.9986L69.0462 29.2686H64.4462L66.1862 23.8086H61.0962L59.3562 29.2686H54.9562L56.6962 23.8086H51.6062L49.8662 29.2686H44.7862L43.8362 33.9986H48.3562L46.6762 39.2786H41.5262L40.5762 44.0086H45.1762L43.4362 49.4686H48.5262L50.2662 44.0086H54.6662L52.9262 49.4686H58.0162L59.7562 44.0086H64.8662L65.7862 39.2786H61.2662L62.9462 33.9986H68.1262ZM56.1762 39.2686H51.7762L53.4562 33.9986H57.8562L56.1762 39.2686Z" fill="white"/>
<path d="M587.323 156.763L582.2 163.465L581.896 163.862L582.292 164.166L591.225 170.992L584.723 179.487L575.791 172.661L575.393 172.358L575.089 172.755L569.965 179.447L559 153.076L587.323 156.763Z" fill="white" stroke="white"/>
<path d="M590.557 177.777C590.557 177.777 624.007 194.247 615.197 221.057C605.967 249.157 565.927 240.997 568.667 228.237C570.577 219.327 605.367 221.817 607.407 259.607C609.887 305.537 548.597 331.097 512.937 299.437" stroke="white" stroke-width="0.5" stroke-miterlimit="10" stroke-linecap="round" stroke-linejoin="round"/>
</svg>
